<svg width="44" height="46" viewBox="0 0 44 46" fill="none" xmlns="http://www.w3.org/2000/svg">
<path d="M1.81215 43.3584C0.0773144 42.3826 -0.573251 39.9972 0.619451 38.2624C5.28183 30.7809 10.8116 23.9499 16.992 17.878C23.1724 11.806 29.7864 6.38466 36.6174 1.39699C38.1354 0.312715 40.3039 0.637998 41.3882 2.26441C42.4724 3.7824 42.2556 5.95095 40.846 7.14365C34.5572 12.565 28.7022 18.2033 23.3892 24.3836C18.1847 30.4556 13.6307 36.9612 9.94421 43.9006C8.96837 45.6354 6.90824 46.286 5.1734 45.3101L1.81215 43.3584V43.3584Z" fill="#E15B64"/>
<path d="M37.8102 41.6248C36.0753 42.6007 33.7984 42.167 32.8225 40.4321C29.2444 34.6855 24.582 29.3725 19.4859 24.4933C14.2814 19.5056 8.42634 14.9516 2.46283 10.6145C0.836417 9.42184 0.402708 7.25329 1.48698 5.62688L2.13755 4.5426C3.22182 2.80776 5.4988 2.37405 7.23364 3.45833C13.7393 7.47014 20.1365 11.9157 26.2084 16.9033C32.2804 21.7826 37.9186 27.5292 42.6894 34.1433C43.9905 35.8782 43.4484 38.372 41.6051 39.5647L37.8102 41.6248Z" fill="#E15B64"/>
</svg>
